<svg width="20" height="20" viewBox="0 0 20 20" fill="none" xmlns="http://www.w3.org/2000/svg">
<path d="M20 17.5L16.25 20V18.75H10.3125L12.8125 16.25H16.25V15L20 17.5Z" fill="#D9D9D9"/>
<path d="M0 2.5L3.75 0V1.25H9.6875L7.1875 3.75H3.75V5L0 2.5Z" fill="#D9D9D9"/>
<path d="M12.175 0L0 12.175L7.825 20L20 7.825L12.175 0ZM1.7375 12.175L12.175 1.7375L18.2625 7.825L7.825 18.2625L1.7375 12.175Z" fill="#D9D9D9"/>
<path d="M5.21246 12.1751L4.33746 13.0501L6.94996 15.6626L7.82496 14.7876L8.74996 15.6501L12.175 12.1751C11.6187 12.7314 10.85 13.0764 9.99996 13.0764C8.30121 13.0764 6.92371 11.6989 6.92371 10.0001C6.92371 9.15012 7.26746 8.38137 7.82496 7.82512L4.34996 11.2501L5.21246 12.1751Z" fill="#D9D9D9"/>
<path d="M15.65 6.96248L13.0375 4.34998L12.1625 5.22498L11.25 4.34998L7.82501 7.82498C8.38126 7.26873 9.15001 6.92373 10 6.92373C11.6988 6.92373 13.0763 8.30123 13.0763 9.99998C13.0763 10.85 12.7325 11.6187 12.175 12.175L15.65 8.74998L14.775 7.87498L15.65 6.96248Z" fill="#D9D9D9"/>
</svg>
