<svg width="44" height="44" viewBox="0 0 44 44" fill="none" xmlns="http://www.w3.org/2000/svg">
<g filter="url(#filter0_d_32_870)">
<circle cx="22" cy="18" r="17" fill="#2D704D" stroke="#2D704D" stroke-width="2"/>
<path d="M22 29.9388C23.3133 29.9388 24.3878 28.8643 24.3878 27.551H19.6123C19.6123 28.8643 20.6867 29.9388 22 29.9388ZM29.1633 22.7755V16.8061C29.1633 13.1409 27.2173 10.0726 23.7908 9.26081V8.44897C23.7908 7.45806 22.9909 6.65816 22 6.65816C21.0091 6.65816 20.2092 7.45806 20.2092 8.44897V9.26081C16.7947 10.0726 14.8367 13.129 14.8367 16.8061V22.7755L12.449 25.1633V26.3571H31.551V25.1633L29.1633 22.7755ZM26.7755 23.9694H17.2245V16.8061C17.2245 13.8453 19.0273 11.4337 22 11.4337C24.9728 11.4337 26.7755 13.8453 26.7755 16.8061V23.9694ZM16.7231 8.54448L15.0158 6.83724C12.1505 9.02204 10.2642 12.3888 10.097 16.2092H12.4848C12.6639 13.0454 14.2876 10.2756 16.7231 8.54448ZM31.5152 16.2092H33.903C33.7239 12.3888 31.8376 9.02204 28.9842 6.83724L27.2889 8.54448C29.7005 10.2756 31.3361 13.0454 31.5152 16.2092Z" fill="#19CB78"/>
<path d="M22 29.9388C23.3133 29.9388 24.3878 28.8643 24.3878 27.551H19.6123C19.6123 28.8643 20.6867 29.9388 22 29.9388ZM29.1633 22.7755V16.8061C29.1633 13.1409 27.2173 10.0726 23.7908 9.26081V8.44897C23.7908 7.45806 22.9909 6.65816 22 6.65816C21.0091 6.65816 20.2092 7.45806 20.2092 8.44897V9.26081C16.7947 10.0726 14.8367 13.129 14.8367 16.8061V22.7755L12.449 25.1633V26.3571H31.551V25.1633L29.1633 22.7755ZM26.7755 23.9694H17.2245V16.8061C17.2245 13.8453 19.0273 11.4337 22 11.4337C24.9728 11.4337 26.7755 13.8453 26.7755 16.8061V23.9694ZM16.7231 8.54448L15.0158 6.83724C12.1505 9.02204 10.2642 12.3888 10.097 16.2092H12.4848C12.6639 13.0454 14.2876 10.2756 16.7231 8.54448ZM31.5152 16.2092H33.903C33.7239 12.3888 31.8376 9.02204 28.9842 6.83724L27.2889 8.54448C29.7005 10.2756 31.3361 13.0454 31.5152 16.2092Z" stroke="#19CB78"/>
</g>
<defs>
<filter id="filter0_d_32_870" x="0" y="0" width="44" height="44" filterUnits="userSpaceOnUse" color-interpolation-filters="sRGB">
<feFlood flood-opacity="0" result="BackgroundImageFix"/>
<feColorMatrix in="SourceAlpha" type="matrix" values="0 0 0 0 0 0 0 0 0 0 0 0 0 0 0 0 0 0 127 0" result="hardAlpha"/>
<feOffset dy="4"/>
<feGaussianBlur stdDeviation="2"/>
<feComposite in2="hardAlpha" operator="out"/>
<feColorMatrix type="matrix" values="0 0 0 0 0 0 0 0 0 0 0 0 0 0 0 0 0 0 0.25 0"/>
<feBlend mode="normal" in2="BackgroundImageFix" result="effect1_dropShadow_32_870"/>
<feBlend mode="normal" in="SourceGraphic" in2="effect1_dropShadow_32_870" result="shape"/>
</filter>
</defs>
</svg>
