<svg width="31" height="31" viewBox="0 0 31 31" fill="none" xmlns="http://www.w3.org/2000/svg">
<path d="M15.5 7.75C14.542 7.75 13.6055 8.03408 12.809 8.56632C12.0124 9.09856 11.3916 9.85505 11.025 10.7401C10.6583 11.6252 10.5624 12.5991 10.7493 13.5387C10.9362 14.4783 11.3975 15.3414 12.075 16.0188C12.7524 16.6962 13.6154 17.1575 14.555 17.3444C15.4946 17.5313 16.4685 17.4354 17.3536 17.0688C18.2387 16.7022 18.9952 16.0813 19.5274 15.2848C20.0597 14.4882 20.3438 13.5518 20.3438 12.5938C20.3438 11.3091 19.8334 10.0771 18.9251 9.1687C18.0167 8.26032 16.7846 7.75 15.5 7.75Z" fill="#F4F4F4"/>
<path d="M15.5 1.9375C12.8176 1.9375 10.1954 2.73293 7.96508 4.22319C5.73474 5.71346 3.9964 7.83163 2.96989 10.3099C1.94338 12.7881 1.67479 15.515 2.19811 18.1459C2.72142 20.7768 4.01312 23.1934 5.90987 25.0901C7.80662 26.9869 10.2232 28.2786 12.8541 28.8019C15.485 29.3252 18.2119 29.0566 20.6902 28.0301C23.1684 27.0036 25.2865 25.2653 26.7768 23.0349C28.2671 20.8046 29.0625 18.1824 29.0625 15.5C29.0585 11.9042 27.6283 8.45692 25.0857 5.91434C22.5431 3.37175 19.0958 1.94155 15.5 1.9375ZM23.2427 24.1469C23.2235 22.8761 22.7057 21.6638 21.801 20.7712C20.8963 19.8786 19.6772 19.3772 18.4063 19.375H12.5938C11.3229 19.3772 10.1037 19.8786 9.19899 20.7712C8.2943 21.6638 7.77653 22.8761 7.75727 24.1469C6.0005 22.5782 4.76164 20.513 4.20471 18.2246C3.64778 15.9362 3.79906 13.5326 4.63851 11.3321C5.47797 9.13161 6.96602 7.23798 8.9056 5.90198C10.8452 4.56598 13.1448 3.85061 15.5 3.85061C17.8552 3.85061 20.1548 4.56598 22.0944 5.90198C24.034 7.23798 25.522 9.13161 26.3615 11.3321C27.201 13.5326 27.3522 15.9362 26.7953 18.2246C26.2384 20.513 24.9995 22.5782 23.2427 24.1469Z" fill="#F4F4F4"/>
</svg>
