<svg width="30" height="40" viewBox="0 0 30 40" fill="none" xmlns="http://www.w3.org/2000/svg">
<g id="&#240;&#159;&#166;&#134; icon &#34;medal gold winner&#34;" filter="url(#filter0_d_30_561)">
<path id="Vector" d="M20.0923 31.8486L14.8178 28.5226L9.54327 31.8486V9.57471H20.0923V31.8486Z" fill="#285FFF"/>
<path id="Vector_2" d="M14.8178 21.6355C20.7923 21.6355 25.6355 16.7923 25.6355 10.8178C25.6355 4.84327 20.7923 0 14.8178 0C8.84327 0 4 4.84327 4 10.8178C4 16.7923 8.84327 21.6355 14.8178 21.6355Z" fill="#FFC54D"/>
<path id="Vector_3" d="M14.8178 19.3174C19.512 19.3174 23.3175 15.512 23.3175 10.8178C23.3175 6.12352 19.512 2.31808 14.8178 2.31808C10.1235 2.31808 6.31812 6.12352 6.31812 10.8178C6.31812 15.512 10.1235 19.3174 14.8178 19.3174Z" fill="#E8B04B"/>
<path id="Vector_4" d="M15.2209 5.74486L16.632 8.56688C16.6991 8.70126 16.8335 8.80205 16.9679 8.83565L20.0923 9.30598C20.4618 9.37317 20.6298 9.80992 20.3611 10.0787L18.1102 12.296C18.0094 12.3968 17.9422 12.5648 17.9758 12.6991L18.5133 15.8235C18.5805 16.1931 18.1774 16.4954 17.8414 16.2939L15.053 14.8157C14.9186 14.7485 14.7506 14.7485 14.6162 14.8157L11.7942 16.2939C11.4582 16.4618 11.0551 16.1931 11.1223 15.8235L11.6598 12.6991C11.6934 12.5648 11.6262 12.3968 11.5254 12.296L9.27453 10.0787C9.00577 9.80992 9.14015 9.33958 9.5433 9.30598L12.6677 8.83565C12.8021 8.80205 12.9364 8.73486 13.0036 8.56688L14.4146 5.74486C14.5826 5.4089 15.053 5.4089 15.2209 5.74486Z" fill="white"/>
</g>
<defs>
<filter id="filter0_d_30_561" x="0" y="0" width="29.6355" height="39.8485" filterUnits="userSpaceOnUse" color-interpolation-filters="sRGB">
<feFlood flood-opacity="0" result="BackgroundImageFix"/>
<feColorMatrix in="SourceAlpha" type="matrix" values="0 0 0 0 0 0 0 0 0 0 0 0 0 0 0 0 0 0 127 0" result="hardAlpha"/>
<feOffset dy="4"/>
<feGaussianBlur stdDeviation="2"/>
<feComposite in2="hardAlpha" operator="out"/>
<feColorMatrix type="matrix" values="0 0 0 0 0 0 0 0 0 0 0 0 0 0 0 0 0 0 0.25 0"/>
<feBlend mode="normal" in2="BackgroundImageFix" result="effect1_dropShadow_30_561"/>
<feBlend mode="normal" in="SourceGraphic" in2="effect1_dropShadow_30_561" result="shape"/>
</filter>
</defs>
</svg>
