<svg width="35" height="34" viewBox="0 0 35 34" fill="none" xmlns="http://www.w3.org/2000/svg">
<g id="&#240;&#159;&#166;&#134; icon &#34;river&#34;" filter="url(#filter0_d_30_530)">
<g id="Group">
<path id="Vector" d="M10.569 12.4534V15.2293" stroke="#BD7575" stroke-width="2.56966" stroke-linecap="square"/>
<path id="Vector_2" fill-rule="evenodd" clip-rule="evenodd" d="M10.569 12.85C12.102 12.85 13.3448 12.5305 13.3448 10.6689C13.3448 8.80734 12.102 6.50513 10.569 6.50513C9.03589 6.50513 7.79309 8.80734 7.79309 10.6689C7.79309 12.5305 9.03589 12.85 10.569 12.85Z" fill="#22BA8E"/>
<path id="Vector_3" d="M13.7919 15.6784H8.6124C7.73632 15.6784 7.02612 16.3908 7.02612 17.2665V17.2297C7.02612 18.1068 7.73532 18.8179 8.60972 18.8179H16.9182C17.7928 18.8179 18.5018 19.5312 18.5018 20.4062V21.2193C18.5018 22.0965 19.212 22.8076 20.0883 22.8076H28.3764" stroke="#5EA7FF" stroke-width="5.13931" stroke-linecap="round"/>
<path id="Vector_4" d="M25.6379 19.1948V21.9706M18.8965 14.0396V16.8155" stroke="#BD7575" stroke-width="2.56966" stroke-linecap="square"/>
<path id="Vector_5" fill-rule="evenodd" clip-rule="evenodd" d="M25.6379 19.5913C27.171 19.5913 28.4138 19.0922 28.4138 16.1835C28.4138 13.2748 27.171 9.67755 25.6379 9.67755C24.1049 9.67755 22.8621 13.2748 22.8621 16.1835C22.8621 19.0922 24.1049 19.5913 25.6379 19.5913Z" fill="#22BA8E"/>
<path id="Vector_6" fill-rule="evenodd" clip-rule="evenodd" d="M18.8965 14.4362C20.4296 14.4362 21.6724 13.937 21.6724 11.0283C21.6724 8.11958 20.4296 4.52237 18.8965 4.52237C17.3635 4.52237 16.1207 8.11958 16.1207 11.0283C16.1207 13.937 17.3635 14.4362 18.8965 14.4362Z" fill="#80D25B"/>
<g id="Group_2">
<path id="Vector_7" d="M28.6121 2.53961H23.8534C23.0869 2.53961 22.4655 3.16101 22.4655 3.92754C22.4655 4.69408 23.0869 5.31547 23.8534 5.31547H28.6121C29.3786 5.31547 30 4.69408 30 3.92754C30 3.16101 29.3786 2.53961 28.6121 2.53961Z" fill="#5EA7FF"/>
<path id="Vector_8" d="M13.1466 2.53961H8.38793C7.6214 2.53961 7 3.16101 7 3.92754C7 4.69408 7.6214 5.31547 8.38793 5.31547H13.1466C13.9131 5.31547 14.5345 4.69408 14.5345 3.92754C14.5345 3.16101 13.9131 2.53961 13.1466 2.53961Z" fill="#5EA7FF"/>
<path id="Vector_9" d="M25.4397 0.9534H20.6811C19.9145 0.9534 19.2932 1.5748 19.2932 2.34133C19.2932 3.10786 19.9145 3.72926 20.6811 3.72926H25.4397C26.2062 3.72926 26.8276 3.10786 26.8276 2.34133C26.8276 1.5748 26.2062 0.9534 25.4397 0.9534Z" fill="#5EA7FF"/>
</g>
</g>
</g>
<defs>
<filter id="filter0_d_30_530" x="0.456482" y="0.9534" width="34.4896" height="32.4239" filterUnits="userSpaceOnUse" color-interpolation-filters="sRGB">
<feFlood flood-opacity="0" result="BackgroundImageFix"/>
<feColorMatrix in="SourceAlpha" type="matrix" values="0 0 0 0 0 0 0 0 0 0 0 0 0 0 0 0 0 0 127 0" result="hardAlpha"/>
<feOffset dy="4"/>
<feGaussianBlur stdDeviation="2"/>
<feComposite in2="hardAlpha" operator="out"/>
<feColorMatrix type="matrix" values="0 0 0 0 0 0 0 0 0 0 0 0 0 0 0 0 0 0 0.25 0"/>
<feBlend mode="normal" in2="BackgroundImageFix" result="effect1_dropShadow_30_530"/>
<feBlend mode="normal" in="SourceGraphic" in2="effect1_dropShadow_30_530" result="shape"/>
</filter>
</defs>
</svg>
