<svg width="39" height="38" viewBox="0 0 39 38" fill="none" xmlns="http://www.w3.org/2000/svg">
<g id="&#240;&#159;&#166;&#134; icon &#34;home&#34;">
<path id="Vector" d="M3.53018 18.0971L2.87946 18.6723C2.58995 18.9106 2.21949 19.028 1.84538 18.9998C1.46894 18.9714 1.11828 18.7978 0.86748 18.5156C0.616675 18.2335 0.485368 17.8649 0.501297 17.4877C0.517118 17.1131 0.676954 16.7592 0.947293 16.4996L18.534 0.867007C18.8002 0.63058 19.1439 0.5 19.5 0.5C19.8561 0.5 20.1998 0.630579 20.466 0.867007L38.0527 16.4996C38.323 16.7591 38.4829 17.1131 38.4987 17.4877C38.5146 17.8649 38.3833 18.2335 38.1325 18.5156C37.8817 18.7978 37.5311 18.9714 37.1546 18.9998C36.7805 19.028 36.4101 18.9106 36.1205 18.6723L35.4698 18.0971L34.6387 17.3625V18.4718V33.2308C34.6387 34.1351 34.2794 35.0023 33.64 35.6418C33.0006 36.2812 32.1333 36.6404 31.229 36.6404H7.77099C6.86669 36.6404 5.99943 36.2812 5.35999 35.6418C4.72055 35.0023 4.36132 34.1351 4.36132 33.2308V18.4718V17.3625L3.53018 18.0971ZM7.43886 14.6184L7.27099 14.7676V14.9922V33.2308V33.7308H7.77099H13.6355H14.1355V33.2308V23.4566C14.1355 23.0707 14.2888 22.7007 14.5616 22.4279C14.8344 22.155 15.2045 22.0017 15.5903 22.0017H23.4097C23.7955 22.0017 24.1656 22.155 24.4384 22.4279C24.7112 22.7007 24.8645 23.0707 24.8645 23.4566V33.2308V33.7308H25.3645H31.229H31.729V33.2308V14.9941V14.7696L31.5612 14.6204L19.8322 4.19526L19.5 3.90004L19.1679 4.19523L7.43886 14.6184ZM21.4548 33.7308H21.9548V33.2308V25.4114V24.9114H21.4548H17.5452H17.0452V25.4114V33.2308V33.7308H17.5452H21.4548Z" fill="white" stroke="#0E4428"/>
</g>
</svg>
