<svg width="34" height="35" viewBox="0 0 34 35" fill="none" xmlns="http://www.w3.org/2000/svg">
<g id="&#240;&#159;&#166;&#134; icon &#34;Search&#34;">
<path id="Vector" d="M24.311 22.0062L23.6793 22.8141H24.7049H25.7874C26.0817 22.8141 26.3591 22.9288 26.5629 23.1326L33.1822 29.7519C33.1825 29.7522 33.1828 29.7525 33.1831 29.7528C33.6067 30.182 33.6064 30.8756 33.1774 31.3046L31.298 33.1841L31.2961 33.186C30.8752 33.6114 30.1838 33.6141 29.7538 33.1841L23.1326 26.5629C22.9288 26.3591 22.8141 26.0817 22.8141 25.7874V24.7049V23.6793L22.0062 24.311C19.7469 26.0775 16.9059 27.127 13.8135 27.127C6.45902 27.127 0.5 21.168 0.5 13.8135C0.5 6.45902 6.45902 0.5 13.8135 0.5C21.168 0.5 27.127 6.45902 27.127 13.8135C27.127 16.9059 26.0775 19.7469 24.311 22.0062ZM4.81289 13.8135C4.81289 18.7918 8.84236 22.8141 13.8135 22.8141C18.7918 22.8141 22.8141 18.7847 22.8141 13.8135C22.8141 8.83521 18.7847 4.81289 13.8135 4.81289C8.83521 4.81289 4.81289 8.84236 4.81289 13.8135Z" fill="white" stroke="#0E4428"/>
</g>
</svg>
