<svg width="42" height="34" viewBox="0 0 42 34" fill="none" xmlns="http://www.w3.org/2000/svg">
<g id="&#240;&#159;&#166;&#134; icon &#34;money&#34;">
<path id="Vector" d="M33.0899 25.45H33.3399V25.2V2.8V2.55H33.0899H3.3548H3.1048V2.8V25.2V25.45H3.3548H33.0899ZM0.901611 0.25H35.5431V27.75H0.901611V0.25Z" fill="white" stroke="#0E4428" stroke-width="0.5"/>
<path id="Vector_2" d="M38.4963 31.05H38.7463V30.8V7.25H40.9495V33.35H7.65961V31.05H38.4963Z" fill="white" stroke="#0E4428" stroke-width="0.5"/>
<path id="Vector_3" d="M24.0545 14.0117C24.0545 17.6816 21.4107 20.6153 18.2223 20.6153C15.034 20.6153 12.3901 17.6817 12.3901 14.0117C12.3901 10.3418 15.034 7.4082 18.2223 7.4082C21.4107 7.4082 24.0545 10.3419 24.0545 14.0117ZM21.8513 14.0117C21.8513 11.6831 20.2642 9.7082 18.2223 9.7082C16.1804 9.7082 14.5933 11.6831 14.5933 14.0117C14.5933 16.3404 16.1804 18.3153 18.2223 18.3153C20.2642 18.3153 21.8513 16.3404 21.8513 14.0117Z" fill="white" stroke="#0E4428" stroke-width="0.5"/>
<path id="Vector_4" d="M6.30792 21.45V6.54999H8.51111V21.45H6.30792Z" fill="white" stroke="#0E4428" stroke-width="0.5"/>
<path id="Vector_5" d="M27.9336 21.45V6.54999H30.1368V21.45H27.9336Z" fill="white" stroke="#0E4428" stroke-width="0.5"/>
</g>
</svg>
