<svg width="45" height="45" viewBox="0 0 45 45" fill="none" xmlns="http://www.w3.org/2000/svg">
<g filter="url(#filter0_d_146_317)">
<path d="M30.635 18.09V35.18H8.66214V29.391V18.09" stroke="#0E4428" stroke-width="2" stroke-linecap="round" stroke-linejoin="round"/>
<path d="M30.2279 35.18H39.1798V4.25524C39.1798 2.45742 37.7224 1 35.9246 1H33.8903C32.0924 1 30.635 2.45742 30.635 4.25524V13.2071" stroke="#0E4428" stroke-width="2" stroke-linecap="round" stroke-linejoin="round"/>
<path d="M24.6129 34.5697L14.7657 25.4142" stroke="#0E4428" stroke-width="2" stroke-linecap="round" stroke-linejoin="round"/>
<path d="M24.5314 35.18V25.4143H14.7657V35.18" stroke="#0E4428" stroke-width="2" stroke-linecap="round" stroke-linejoin="round"/>
<path d="M30.635 9.54504H39.18" stroke="#0E4428" stroke-width="2" stroke-linecap="round" stroke-linejoin="round"/>
<path d="M30.635 25.4143H39.18" stroke="#0E4428" stroke-width="2" stroke-linecap="round" stroke-linejoin="round"/>
<path d="M30.635 30.2971H39.18" stroke="#0E4428" stroke-width="2" stroke-linecap="round" stroke-linejoin="round"/>
<path d="M6.22072 19.3108L19.6486 9.54504L33.0764 19.3108" stroke="#0E4428" stroke-width="2" stroke-linecap="round" stroke-linejoin="round"/>
<path d="M17.2072 18.3952L19.6486 16.8693L22.09 18.3952" stroke="#0E4428" stroke-width="2" stroke-linecap="round" stroke-linejoin="round"/>
<path d="M5 8.32422L7.44143 10.0536L9.88286 8.32422" stroke="#0E4428" stroke-width="2" stroke-linecap="round" stroke-linejoin="round"/>
<path d="M11.1036 2.2207L13.545 3.95005L15.9864 2.2207" stroke="#0E4428" stroke-width="2" stroke-linecap="round" stroke-linejoin="round"/>
</g>
<defs>
<filter id="filter0_d_146_317" x="-7.62939e-05" y="0" width="44.1801" height="44.1801" filterUnits="userSpaceOnUse" color-interpolation-filters="sRGB">
<feFlood flood-opacity="0" result="BackgroundImageFix"/>
<feColorMatrix in="SourceAlpha" type="matrix" values="0 0 0 0 0 0 0 0 0 0 0 0 0 0 0 0 0 0 127 0" result="hardAlpha"/>
<feOffset dy="4"/>
<feGaussianBlur stdDeviation="2"/>
<feComposite in2="hardAlpha" operator="out"/>
<feColorMatrix type="matrix" values="0 0 0 0 0 0 0 0 0 0 0 0 0 0 0 0 0 0 0.25 0"/>
<feBlend mode="normal" in2="BackgroundImageFix" result="effect1_dropShadow_146_317"/>
<feBlend mode="normal" in="SourceGraphic" in2="effect1_dropShadow_146_317" result="shape"/>
</filter>
</defs>
</svg>
