<svg width="21" height="21" viewBox="0 0 21 21" fill="none" xmlns="http://www.w3.org/2000/svg">
<path d="M2 1C1.73245 1.00669 1.47812 1.1177 1.29128 1.30932C1.10445 1.50095 0.999916 1.75801 1 2.02564V5.46154L15.5128 19.9744H18.9744C19.2464 19.9744 19.5073 19.8663 19.6996 19.674C19.8919 19.4816 20 19.2207 20 18.9487V2C19.9933 1.73245 19.8823 1.47812 19.6907 1.29128C19.4991 1.10445 19.242 0.999916 18.9744 1H2ZM13.6462 2.99487C14.7946 2.99758 15.8952 3.455 16.7073 4.26707C17.5194 5.07914 17.9768 6.17977 17.9795 7.32821C17.9795 9.85128 15.9282 11.8154 13.6462 14.3949C11.4615 11.9231 9.49231 10.0154 9.32821 7.64615V7.62051C9.32821 7.52308 9.32821 7.42564 9.32821 7.32821C9.32821 6.17893 9.78475 5.07673 10.5974 4.26408C11.4101 3.45142 12.5123 2.99487 13.6615 2.99487H13.6462ZM13.6462 5.24615C13.094 5.24615 12.5644 5.46551 12.1739 5.85597C11.7835 6.24643 11.5641 6.77601 11.5641 7.32821C11.5641 7.8804 11.7835 8.40998 12.1739 8.80044C12.5644 9.1909 13.094 9.41026 13.6462 9.41026C14.1983 9.41026 14.7279 9.1909 15.1184 8.80044C15.5088 8.40998 15.7282 7.8804 15.7282 7.32821C15.7282 6.77601 15.5088 6.24643 15.1184 5.85597C14.7279 5.46551 14.1983 5.24615 13.6462 5.24615ZM1 12.1179V18.9744C1 19.2464 1.10806 19.5073 1.3004 19.6996C1.49275 19.8919 1.75362 20 2.02564 20H8.85641L1 12.1179Z" stroke="#0E4428" stroke-linecap="round" stroke-linejoin="round"/>
</svg>
