<svg width="25" height="19" viewBox="0 0 25 19" fill="none" xmlns="http://www.w3.org/2000/svg">
<g id="&#240;&#159;&#166;&#134; icon &#34;newspaper&#34;">
<path id="Vector" d="M3.71739 0V16.3152C3.71739 16.5891 3.6086 16.8517 3.41495 17.0454C3.2213 17.239 2.95865 17.3478 2.68478 17.3478C2.41092 17.3478 2.14827 17.239 1.95462 17.0454C1.76097 16.8517 1.65217 16.5891 1.65217 16.3152V4.13043H0V16.3152C0.000806249 17.027 0.283925 17.7094 0.787245 18.2128C1.29056 18.7161 1.97298 18.9992 2.68478 19H22.0978C22.8096 18.9992 23.492 18.7161 23.9954 18.2128C24.4987 17.7094 24.7818 17.027 24.7826 16.3152V0H3.71739ZM23.1304 16.3152C23.1301 16.589 23.0212 16.8514 22.8276 17.045C22.6341 17.2386 22.3716 17.3475 22.0978 17.3478H5.16304C5.29974 17.0207 5.36995 16.6697 5.36956 16.3152V1.65217H23.1304V16.3152Z" fill="#0E4428"/>
<path id="Vector_2" d="M14.4565 3.30435H7.02173V11.5652H14.4565V3.30435ZM12.8043 9.91305H8.6739V4.95653H12.8043V9.91305Z" fill="#0E4428"/>
<path id="Vector_3" d="M21.4783 3.30435H16.1087V4.95653H21.4783V3.30435Z" fill="#0E4428"/>
<path id="Vector_4" d="M21.4783 6.6087H16.1087V8.26088H21.4783V6.6087Z" fill="#0E4428"/>
<path id="Vector_5" d="M21.4783 9.91302H16.1087V11.5652H21.4783V9.91302Z" fill="#0E4428"/>
</g>
</svg>
