<svg width="20" height="20" viewBox="0 0 20 20" fill="none" xmlns="http://www.w3.org/2000/svg">
<path d="M14.6333 17.5C14.5 17.5005 14.3685 17.4691 14.2499 17.4083L9.99992 15.1833L5.74992 17.4083C5.61192 17.4809 5.45632 17.5133 5.30082 17.5018C5.14532 17.4904 4.99616 17.4355 4.87028 17.3435C4.74441 17.2515 4.64687 17.126 4.58877 16.9813C4.53066 16.8366 4.51432 16.6785 4.54159 16.525L5.37492 11.8333L1.94159 8.5C1.83447 8.3931 1.75848 8.25905 1.72178 8.11224C1.68508 7.96543 1.68905 7.81139 1.73326 7.66666C1.78156 7.51856 1.8704 7.38696 1.98972 7.2868C2.10903 7.18663 2.25403 7.12192 2.40826 7.1L7.15826 6.40833L9.24992 2.13333C9.31816 1.99244 9.42471 1.87362 9.55735 1.79047C9.68999 1.70733 9.84338 1.66324 9.99992 1.66324C10.1565 1.66324 10.3099 1.70733 10.4425 1.79047C10.5751 1.87362 10.6817 1.99244 10.7499 2.13333L12.8666 6.4L17.6166 7.09166C17.7708 7.11359 17.9158 7.1783 18.0351 7.27846C18.1544 7.37863 18.2433 7.51023 18.2916 7.65833C18.3358 7.80306 18.3398 7.9571 18.3031 8.10391C18.2664 8.25072 18.1904 8.38477 18.0833 8.49166L14.6499 11.825L15.4833 16.5167C15.513 16.6729 15.4974 16.8344 15.4384 16.982C15.3793 17.1297 15.2792 17.2574 15.1499 17.35C14.999 17.4557 14.8173 17.5085 14.6333 17.5Z" fill="white"/>
</svg>
