<svg width="27" height="27" viewBox="0 0 27 27" fill="none" xmlns="http://www.w3.org/2000/svg">
<path d="M7.71876 26.035C4.62062 26.035 2.08228 23.783 2.08228 21.0103V18.3547C2.08228 17.821 2.52487 17.3784 3.05858 17.3784C3.59229 17.3784 4.03489 17.821 4.03489 18.3547C4.03489 19.9819 5.60994 21.2055 7.71876 21.2055C9.82758 21.2055 11.4027 19.9819 11.4027 18.3547C11.4027 17.821 11.8453 17.3784 12.379 17.3784C12.9127 17.3784 13.3553 17.821 13.3553 18.3547V21.0103C13.3553 23.783 10.8299 26.035 7.71876 26.035ZM4.37327 22.286C4.94604 23.3534 6.23477 24.0824 7.71876 24.0824C9.20274 24.0824 10.4915 23.3404 11.0642 22.286C10.14 22.8457 8.99446 23.1712 7.71876 23.1712C6.44305 23.1712 5.29751 22.8457 4.37327 22.286Z" fill="#0E4428"/>
<path d="M7.71876 19.591C5.5839 19.591 3.67039 18.6147 2.72012 17.0657C2.30356 16.3888 2.08228 15.5947 2.08228 14.7876C2.08228 13.4208 2.68106 12.1451 3.77452 11.1948C5.88334 9.34636 9.51517 9.34643 11.637 11.1819C12.7305 12.1452 13.3423 13.4208 13.3423 14.7876C13.3423 15.5947 13.121 16.3888 12.7044 17.0657C11.7672 18.6147 9.85361 19.591 7.71876 19.591ZM7.71876 11.7155C6.7034 11.7155 5.76617 12.054 5.06323 12.6658C4.39935 13.2385 4.03489 13.9936 4.03489 14.7876C4.03489 15.2432 4.15199 15.6599 4.3863 16.0504C4.9851 17.0398 6.26081 17.6514 7.71876 17.6514C9.17671 17.6514 10.4524 17.0398 11.0382 16.0634C11.2725 15.6859 11.3897 15.2562 11.3897 14.8006C11.3897 14.0066 11.0252 13.2516 10.3613 12.6658C9.67141 12.054 8.73411 11.7155 7.71876 11.7155Z" fill="#0E4428"/>
<path d="M7.71876 23.171C4.50346 23.171 2.08228 21.1012 2.08228 18.3676V14.7878C2.08228 12.0151 4.6076 9.76306 7.71876 9.76306C9.18972 9.76306 10.5956 10.2707 11.65 11.182C12.7435 12.1452 13.3553 13.421 13.3553 14.7878V18.3676C13.3553 21.1012 10.9341 23.171 7.71876 23.171ZM7.71876 11.7157C5.68804 11.7157 4.03489 13.0955 4.03489 14.7878V18.3676C4.03489 19.9947 5.60994 21.2184 7.71876 21.2184C9.82758 21.2184 11.4027 19.9947 11.4027 18.3676V14.7878C11.4027 13.9937 11.0382 13.2387 10.3744 12.6529C9.67142 12.0541 8.73411 11.7157 7.71876 11.7157Z" fill="#0E4428"/>
<path d="M19.2136 24.0822H15.9593C15.4256 24.0822 14.983 23.6396 14.983 23.1059C14.983 22.5722 15.4256 22.1296 15.9593 22.1296H19.2136C22.5721 22.1296 24.746 19.9557 24.746 16.5972V15.686H23.1709C21.2053 15.686 19.5391 14.228 19.3829 12.3535C19.2787 11.2731 19.6694 10.2187 20.4504 9.45063C21.1013 8.77374 22.0254 8.39624 23.0017 8.39624H24.733V7.485C24.733 4.43893 22.9498 2.34311 20.0599 2.00465C19.7475 1.95258 19.474 1.95261 19.2006 1.95261H7.48501C7.17259 1.95261 6.87317 1.97863 6.57377 2.01768C3.70995 2.38217 1.95261 4.46497 1.95261 7.485V10.0885C1.95261 10.6222 1.51002 11.0648 0.976305 11.0648C0.442592 11.0648 0 10.6222 0 10.0885V7.485C0 3.47565 2.47336 0.572779 6.31349 0.0911347C6.66496 0.0390651 7.06845 0 7.48501 0H19.2006C19.513 0 19.9166 0.0130173 20.3331 0.0781043C24.1733 0.520696 26.6856 3.43659 26.6856 7.485V9.37254C26.6856 9.90624 26.243 10.3488 25.7093 10.3488H23.0017C22.5461 10.3488 22.1297 10.5181 21.8303 10.8305C21.4528 11.195 21.2704 11.6896 21.3225 12.1843C21.3875 13.0434 22.2208 13.7334 23.158 13.7334H25.7223C26.2561 13.7334 26.6986 14.1759 26.6986 14.7097V16.5972C26.6986 21.0752 23.6916 24.0822 19.2136 24.0822Z" fill="#0E4428"/>
</svg>
